Coordinates
version=1
nRows=41
nColumns=38
inDegrees=no

Units are S.I. units (second, meters, Newtons, ...)
If the header above contains a line with 'inDegrees', this indicates whether rotational values are in degrees (yes) or radians (no).

endheader
time	pelvis_tilt	pelvis_list	pelvis_rotation	pelvis_tx	pelvis_ty	pelvis_tz	hip_flexion_r	hip_adduction_r	hip_rotation_r	knee_angle_r	ankle_angle_r	subtalar_angle_r	mtp_angle_r	hip_flexion_l	hip_adduction_l	hip_rotation_l	knee_angle_l	ankle_angle_l	subtalar_angle_l	mtp_angle_l	lumbar_extension	lumbar_bending	lumbar_rotation	arm_flex_r	arm_add_r	arm_rot_r	elbow_flex_r	pro_sup_r	wrist_flex_r	wrist_dev_r	arm_flex_l	arm_add_l	arm_rot_l	elbow_flex_l	pro_sup_l	wrist_flex_l	wrist_dev_l
35	0.0261616	1.31684	1.56227	0.732928	-0.326341	0.9844	0.662289	-0.0502946	0.0405	0.701912	-0.172851	0	0	0.514978	-0.0644069	-0.0623094	0.558938	-0.187337	0	0	-0.529807	-0.0202783	0.179453	0.352032	-0.546974	1.00334	0.599405	0.43034	0	0	0.535445	-0.157776	0.640955	0.289185	1.04441	0	0
35.01	0.0307238	1.30846	1.55976	0.73344	-0.330342	0.981306	0.682728	-0.0499541	0.0392492	0.715175	-0.171295	0	0	0.53891	-0.0652142	-0.0563491	0.580892	-0.181115	0	0	-0.537626	-0.0205622	0.183326	0.358331	-0.551773	0.988866	0.602991	0.435615	0	0	0.550187	-0.152581	0.640582	0.288534	1.04819	0	0
35.02	0.0354245	1.30028	1.55649	0.733997	-0.334321	0.978238	0.702877	-0.04873	0.0391773	0.728541	-0.169826	0	0	0.562118	-0.0662474	-0.0504909	0.602013	-0.175135	0	0	-0.545613	-0.0208177	0.187657	0.364286	-0.55695	0.972806	0.607281	0.442999	0	0	0.564735	-0.147586	0.640979	0.288458	1.05287	0	0
35.03	0.039015	1.29215	1.55501	0.734457	-0.33812	0.97517	0.722674	-0.0480627	0.0390866	0.742345	-0.167997	0	0	0.584772	-0.0664533	-0.0441114	0.622175	-0.169666	0	0	-0.553486	-0.0210212	0.191587	0.369133	-0.562363	0.955071	0.612231	0.451645	0	0	0.579081	-0.142356	0.641085	0.288291	1.05794	0	0
35.04	0.0416583	1.28423	1.55454	0.734929	-0.34175	0.972125	0.742056	-0.0476969	0.0397486	0.755399	-0.166518	0	0	0.606776	-0.0663312	-0.0380572	0.641639	-0.16454	0	0	-0.561189	-0.0215232	0.195592	0.372935	-0.567921	0.935927	0.617965	0.460742	0	0	0.593202	-0.136774	0.64007	0.287784	1.06304	0	0
35.05	0.0440432	1.27648	1.55421	0.735463	-0.345276	0.969111	0.760896	-0.0470471	0.0409612	0.767754	-0.165165	0	0	0.628349	-0.0661646	-0.0319034	0.660802	-0.159796	0	0	-0.568713	-0.0223423	0.199782	0.375939	-0.573605	0.915675	0.624713	0.469847	0	0	0.607019	-0.131191	0.638262	0.287529	1.06886	0	0
35.06	0.0457996	1.2678	1.55438	0.736012	-0.348756	0.965967	0.780649	-0.0463	0.0425164	0.780316	-0.163368	0	0	0.650951	-0.0655547	-0.025125	0.679986	-0.15484	0	0	-0.575181	-0.023687	0.204436	0.376478	-0.579399	0.890282	0.633062	0.481573	0	0	0.620348	-0.125696	0.635363	0.288335	1.07708	0	0
35.07	0.0466541	1.26056	1.55525	0.736493	-0.352125	0.962936	0.798537	-0.0459676	0.043658	0.792313	-0.161589	0	0	0.671336	-0.0646529	-0.0194045	0.697668	-0.150954	0	0	-0.582616	-0.0248152	0.207803	0.379754	-0.585052	0.871806	0.640302	0.490705	0	0	0.632919	-0.121079	0.632762	0.28967	1.08457	0	0
35.08	0.0465928	1.25154	1.55706	0.73694	-0.355474	0.959569	0.818921	-0.0460376	0.0446768	0.80525	-0.159335	0	0	0.693899	-0.0633084	-0.0129057	0.716646	-0.146497	0	0	-0.587733	-0.0261809	0.211694	0.380183	-0.590615	0.848284	0.648273	0.50275	0	0	0.644724	-0.115961	0.627319	0.291199	1.09447	0	0
35.09	0.0460117	1.24257	1.55943	0.737355	-0.358772	0.956121	0.839432	-0.0467361	0.0450237	0.818441	-0.157357	0	0	0.716372	-0.0616017	-0.00678099	0.735388	-0.142018	0	0	-0.592527	-0.0273867	0.214746	0.381252	-0.595567	0.826334	0.65537	0.514887	0	0	0.655589	-0.111336	0.620257	0.293477	1.10502	0	0
35.1	0.0454627	1.23323	1.56157	0.737761	-0.362017	0.952567	0.860263	-0.0474319	0.0453012	0.831804	-0.155483	0	0	0.739385	-0.0597951	-0.000826209	0.754163	-0.137812	0	0	-0.596589	-0.0285075	0.217385	0.382744	-0.59996	0.80566	0.661693	0.527194	0	0	0.665531	-0.107304	0.611925	0.296514	1.11766	0	0
35.11	0.0446876	1.2238	1.56298	0.738244	-0.36515	0.948978	0.881037	-0.0475054	0.0461367	0.845011	-0.15369	0	0	0.762173	-0.0582218	0.00523653	0.7727	-0.133803	0	0	-0.600192	-0.0300207	0.220039	0.384675	-0.603868	0.786021	0.667596	0.539087	0	0	0.674156	-0.1039	0.600506	0.300868	1.13095	0	0
35.12	0.0433574	1.21453	1.56451	0.738763	-0.368114	0.945367	0.901235	-0.0471344	0.0476747	0.857798	-0.151283	0	0	0.784389	-0.0564802	0.0116019	0.791127	-0.129462	0	0	-0.603526	-0.0317939	0.222176	0.385882	-0.606931	0.764143	0.673811	0.553326	0	0	0.681421	-0.100686	0.583776	0.306362	1.14825	0	0
35.13	0.0411012	1.20651	1.56688	0.739279	-0.370919	0.941922	0.920046	-0.047217	0.0492719	0.870189	-0.149222	0	0	0.804679	-0.0543071	0.0176927	0.808785	-0.125272	0	0	-0.607687	-0.0336144	0.223068	0.388084	-0.609571	0.74454	0.680163	0.566874	0	0	0.687978	-0.0981062	0.56516	0.312398	1.16709	0	0
35.14	0.0378299	1.19986	1.57032	0.739791	-0.373534	0.938687	0.937109	-0.047692	0.0511341	0.88197	-0.147294	0	0	0.822886	-0.051688	0.0230146	0.825514	-0.121485	0	0	-0.612937	-0.0355094	0.22287	0.391116	-0.611653	0.726415	0.686351	0.579163	0	0	0.69392	-0.0960215	0.544687	0.319094	1.18705	0	0
35.15	0.0339973	1.19433	1.57415	0.740327	-0.375965	0.935634	0.952548	-0.0480719	0.0534379	0.893065	-0.145352	0	0	0.8392	-0.0490426	0.0275635	0.84133	-0.117922	0	0	-0.619149	-0.0375382	0.222185	0.395051	-0.61347	0.710436	0.692229	0.590088	0	0	0.699294	-0.0941354	0.522248	0.326366	1.20739	0	0
35.16	0.0295823	1.1888	1.57776	0.741031	-0.378216	0.932554	0.967812	-0.0476153	0.0567053	0.904007	-0.143292	0	0	0.85501	-0.0471616	0.0306451	0.856762	-0.114318	0	0	-0.624934	-0.0401949	0.221568	0.399461	-0.614461	0.695638	0.697288	0.599588	0	0	0.70391	-0.0926668	0.498406	0.334075	1.22872	0	0
35.17	0.0252665	1.18318	1.58066	0.741883	-0.380347	0.929451	0.982914	-0.0461268	0.0605272	0.915136	-0.140766	0	0	0.870768	-0.0462814	0.0322411	0.872228	-0.110831	0	0	-0.630357	-0.043235	0.221106	0.404538	-0.614679	0.681704	0.701424	0.608104	0	0	0.708067	-0.0914385	0.473834	0.341918	1.25088	0	0
35.18	0.0212606	1.17915	1.58433	0.742443	-0.38245	0.926593	0.99581	-0.0460348	0.0628509	0.925666	-0.138252	0	0	0.884597	-0.0440802	0.0350021	0.886815	-0.107846	0	0	-0.63729	-0.0451922	0.219312	0.411268	-0.615802	0.672387	0.705476	0.614839	0	0	0.713039	-0.0902406	0.453306	0.348503	1.2692	0	0
35.19	0.0169656	1.17372	1.587	0.743395	-0.384461	0.923527	1.01034	-0.0442503	0.066973	0.936516	-0.135466	0	0	0.899722	-0.0438572	0.0354625	0.901465	-0.105011	0	0	-0.642222	-0.0486584	0.218507	0.417413	-0.615624	0.662666	0.708546	0.622122	0	0	0.717866	-0.089677	0.433381	0.355033	1.28836	0	0
35.2	0.0130318	1.16877	1.58959	0.744288	-0.386411	0.920576	1.02397	-0.0427866	0.0706313	0.947005	-0.132999	0	0	0.913936	-0.0436915	0.0354899	0.915181	-0.102342	0	0	-0.647573	-0.0518257	0.217005	0.424321	-0.615582	0.655414	0.71164	0.628711	0	0	0.723247	-0.0897386	0.416934	0.36089	1.30348	0	0
35.21	0.00966241	1.16392	1.59216	0.745083	-0.388313	0.917696	1.03722	-0.041695	0.0740148	0.957286	-0.130449	0	0	0.92772	-0.043279	0.0356407	0.928248	-0.0993976	0	0	-0.653062	-0.0543599	0.214731	0.431925	-0.61525	0.648721	0.714454	0.635787	0	0	0.728356	-0.0900762	0.399703	0.367042	1.3187	0	0
35.22	0.00641271	1.15913	1.59486	0.745866	-0.390161	0.914918	1.05009	-0.0407158	0.0773644	0.966962	-0.128193	0	0	0.940939	-0.0428346	0.0355648	0.940493	-0.0967965	0	0	-0.658679	-0.0566453	0.211917	0.440329	-0.614545	0.642727	0.716921	0.642697	0	0	0.733005	-0.0908758	0.381988	0.373927	1.3337	0	0
35.23	0.00256029	1.15454	1.59886	0.746594	-0.391992	0.912342	1.06233	-0.0406384	0.0800652	0.975708	-0.126332	0	0	0.953259	-0.0415958	0.0358295	0.951315	-0.0950127	0	0	-0.664675	-0.0587081	0.208324	0.449428	-0.613808	0.637809	0.719308	0.64829	0	0	0.737961	-0.0916793	0.364634	0.380815	1.34819	0	0
35.24	-0.00153431	1.14932	1.6036	0.747337	-0.393782	0.909812	1.0749	-0.0410183	0.0824233	0.983897	-0.124625	0	0	0.96579	-0.0400525	0.0359555	0.961189	-0.093755	0	0	-0.669758	-0.0607203	0.20443	0.458067	-0.613087	0.633913	0.72189	0.653014	0	0	0.742878	-0.0924883	0.34798	0.387521	1.36164	0	0
35.25	-0.00590165	1.14306	1.60922	0.748058	-0.395512	0.907233	1.08838	-0.0420785	0.084597	0.991998	-0.123014	0	0	0.979147	-0.0381199	0.0358239	0.970343	-0.0926734	0	0	-0.673431	-0.0623557	0.200366	0.466391	-0.612162	0.63024	0.723972	0.656875	0	0	0.74739	-0.0931628	0.332497	0.394269	1.37525	0	0
35.26	-0.00950654	1.13323	1.61455	0.748722	-0.397184	0.904365	1.10544	-0.0434245	0.0867929	1.00002	-0.121197	0	0	0.996208	-0.0357757	0.0363893	0.978933	-0.0924273	0	0	-0.673941	-0.0641176	0.197515	0.466038	-0.607788	0.60377	0.727712	0.688549	0	0	0.749324	-0.0905144	0.298554	0.40407	1.41228	0	0
35.27	-0.0112829	1.12809	1.61747	0.749382	-0.398841	0.902124	1.11672	-0.0439128	0.0881037	1.00665	-0.12072	0	0	1.00792	-0.0351056	0.0357951	0.986567	-0.0923187	0	0	-0.677899	-0.0654709	0.196424	0.47489	-0.609494	0.607157	0.728828	0.682065	0	0	0.755516	-0.0891631	0.289472	0.408514	1.41992	0	0
35.28	-0.0126389	1.12187	1.62071	0.74991	-0.400503	0.89994	1.12882	-0.0454302	0.0886078	1.013	-0.120439	0	0	1.02044	-0.0333415	0.0364764	0.993071	-0.0924816	0	0	-0.681032	-0.0660434	0.195109	0.482435	-0.610942	0.606676	0.73057	0.677934	0	0	0.761078	-0.0873156	0.278378	0.413643	1.42992	0	0
35.29	-0.0127236	1.11731	1.62246	0.750439	-0.402203	0.898048	1.13871	-0.0463751	0.0886807	1.01852	-0.120253	0	0	1.03092	-0.0319387	0.0380415	0.999133	-0.092306	0	0	-0.685966	-0.0658894	0.194151	0.490478	-0.61277	0.605421	0.733187	0.675835	0	0	0.766783	-0.0853394	0.266059	0.418894	1.44167	0	0
35.3	-0.0125236	1.11293	1.62327	0.751023	-0.403812	0.896306	1.14795	-0.0464469	0.0892545	1.0233	-0.120211	0	0	1.04071	-0.0312557	0.0391201	1.00495	-0.0921073	0	0	-0.691159	-0.0658982	0.193169	0.498597	-0.614138	0.603465	0.736168	0.675254	0	0	0.771854	-0.083806	0.252255	0.425014	1.45398	0	0
35.31	-0.0127664	1.1083	1.62413	0.751625	-0.405348	0.894656	1.15717	-0.0462321	0.0902354	1.02758	-0.120419	0	0	1.05016	-0.0306481	0.0396577	1.01012	-0.0919706	0	0	-0.696083	-0.0662872	0.191583	0.506802	-0.614835	0.601351	0.739261	0.675716	0	0	0.776032	-0.0830155	0.237047	0.432398	1.46648	0	0
35.32	-0.0139831	1.10303	1.62576	0.752247	-0.40682	0.89302	1.16695	-0.0461682	0.0915562	1.03151	-0.120903	0	0	1.0598	-0.0296111	0.0398737	1.01466	-0.0918989	0	0	-0.699997	-0.0671701	0.189206	0.514769	-0.614884	0.599504	0.742416	0.677035	0	0	0.779518	-0.083198	0.221954	0.440359	1.47949	0	0
35.33	-0.0160229	1.09704	1.62812	0.752893	-0.408224	0.891353	1.17732	-0.0462688	0.0930593	1.03507	-0.121523	0	0	1.06997	-0.0283395	0.0396992	1.01892	-0.091918	0	0	-0.702565	-0.0686974	0.186606	0.521604	-0.614557	0.597121	0.745755	0.6784	0	0	0.78237	-0.0837089	0.207356	0.448684	1.49175	0	0
35.34	-0.0188196	1.09079	1.63124	0.753534	-0.409546	0.88967	1.1878	-0.0466058	0.0945984	1.03846	-0.121636	0	0	1.08028	-0.0267464	0.0395259	1.0232	-0.0918936	0	0	-0.703929	-0.0713719	0.185144	0.525918	-0.614294	0.592454	0.748854	0.679365	0	0	0.786152	-0.0831115	0.195471	0.45517	1.50361	0	0
35.35	-0.0220826	1.08437	1.6348	0.754169	-0.410798	0.887938	1.19851	-0.0472364	0.0959682	1.04212	-0.121423	0	0	1.09072	-0.0250252	0.0393447	1.02758	-0.0920112	0	0	-0.704476	-0.0741735	0.183544	0.529147	-0.613842	0.58686	0.752217	0.680641	0	0	0.789804	-0.0829668	0.185895	0.461046	1.51442	0	0
35.36	-0.0251353	1.07789	1.63823	0.754732	-0.411985	0.886169	1.20947	-0.0482258	0.0970734	1.04653	-0.121334	0	0	1.10121	-0.0232872	0.0395429	1.03219	-0.091763	0	0	-0.704456	-0.0764508	0.18144	0.532225	-0.613215	0.581437	0.755603	0.68275	0	0	0.79294	-0.083678	0.178076	0.466682	1.52414	0	0
35.37	-0.0273902	1.07146	1.64076	0.755262	-0.413047	0.884382	1.22017	-0.0488475	0.0981059	1.051	-0.121267	0	0	1.11159	-0.0219932	0.0400546	1.03701	-0.0913731	0	0	-0.704022	-0.0779297	0.178917	0.535537	-0.612126	0.576538	0.758737	0.686322	0	0	0.795153	-0.0854007	0.171153	0.472588	1.53245	0	0
35.38	-0.0282049	1.06772	1.64034	0.755953	-0.413971	0.882894	1.2276	-0.047297	0.0991401	1.05467	-0.121239	0	0	1.11919	-0.023272	0.0393842	1.04209	-0.090892	0	0	-0.705931	-0.0789467	0.177358	0.540884	-0.611112	0.574327	0.761203	0.689722	0	0	0.797499	-0.0879367	0.165968	0.477935	1.53707	0	0
35.39	-0.0277691	1.06477	1.63926	0.756468	-0.414817	0.881575	1.2338	-0.0462722	0.0991052	1.05787	-0.120899	0	0	1.12594	-0.0240775	0.0398931	1.04697	-0.0905008	0	0	-0.708499	-0.0788194	0.175624	0.546354	-0.61011	0.571846	0.763524	0.693017	0	0	0.799249	-0.0902882	0.16011	0.483755	1.54006	0	0
35.4	-0.0213016	1.05368	1.63291	0.75647	-0.415231	0.879762	1.24675	-0.0451908	0.0959656	1.05838	-0.120765	0	0	1.14069	-0.024806	0.044013	1.05133	-0.0899273	0	0	-0.704658	-0.0706743	0.164816	0.559528	-0.603344	0.575957	0.765642	0.703695	0	0	0.786572	-0.101266	0.138928	0.506331	1.5436	0	0
